# Blender 4.1.1
# www.blender.org
mtllib cornerIn.mtl
o Cube.001
v 32.000000 0.000000 -32.000000
v 32.000000 0.000000 0.000000
v 0.000000 0.000000 -32.000000
v 0.000000 0.000000 0.000000
v 0.000000 64.000000 32.000000
v 32.000000 64.000000 32.000000
v -32.000000 64.000000 0.000000
v -32.000000 64.000000 32.000000
v 0.000000 64.000000 -32.000000
v -32.000000 64.000000 -32.000000
v 32.000000 64.000000 0.000000
v 0.000000 64.000000 0.000000
vn -0.0000 1.0000 -0.0000
vn -0.0000 -0.0000 -1.0000
vn 1.0000 -0.0000 -0.0000
vt 0.500000 0.500000
vt 1.000000 0.500000
vt 1.000000 1.000000
vt 0.500000 1.000000
vt 0.000000 0.000000
vt 0.500000 0.000000
vt 0.000000 1.000000
vt 1.000000 0.000000
vt 0.000000 0.500000
s 0
usemtl FlatCornerIn.001
f 4/1/1 2/2/1 1/3/1 3/4/1
f 5/6/1 6/8/1 11/2/1 12/1/1
f 8/5/1 5/6/1 12/1/1 7/9/1
f 7/9/1 12/1/1 9/4/1 10/7/1
usemtl Side.001
f 2/5/2 4/6/2 12/4/2 11/7/2
f 4/6/3 3/8/3 9/3/3 12/4/3
