# Blender 4.1.1
# www.blender.org
mtllib dirt.mtl
o Cube.002
v 12.648823 12.648823 -12.648823
v 12.648823 -12.648823 -12.648823
v 12.648823 12.648823 12.648823
v 12.648823 -12.648823 12.648823
v -12.648823 12.648823 -12.648823
v -12.648823 -12.648823 -12.648823
v -12.648823 12.648823 12.648823
v -12.648823 -12.648823 12.648823
v -13.486616 -13.486616 0.000000
v 0.000000 -13.486616 -13.486616
v 13.486616 0.000000 -13.486616
v -13.486616 0.000000 13.486616
v 13.486616 0.000000 13.486616
v -13.486616 0.000000 -13.486616
v 0.000000 13.486616 13.486616
v 13.486616 13.486616 0.000000
v 0.000000 -13.486616 13.486616
v -13.486616 13.486616 0.000000
v 0.000000 13.486616 -13.486616
v 13.486616 -13.486616 0.000000
v 0.000000 0.000000 -16.000000
v 16.000000 0.000000 0.000000
v 0.000000 -16.000000 0.000000
v -16.000000 0.000000 0.000000
v 0.000000 0.000000 16.000000
v 0.000000 16.000000 0.000000
v -13.486616 -13.486616 8.000000
v -8.000000 -13.486616 -13.486616
v 13.486616 -8.000000 -13.486616
v -13.486616 8.000000 13.486616
v 13.486616 -8.000000 13.486616
v -13.486616 -8.000000 -13.486616
v -8.000000 13.486616 13.486616
v 13.486616 13.486616 8.000000
v 8.000000 -13.486616 13.486616
v -13.486616 13.486616 -8.000000
v 8.000000 13.486616 -13.486616
v 13.486616 -13.486616 -8.000000
v -13.486616 -13.486616 -8.000000
v 8.000000 -13.486616 -13.486616
v 13.486616 8.000000 -13.486616
v -13.486616 -8.000000 13.486616
v 13.486616 8.000000 13.486616
v -13.486616 8.000000 -13.486616
v 8.000000 13.486616 13.486616
v 13.486616 13.486616 -8.000000
v -8.000000 -13.486616 13.486616
v -13.486616 13.486616 8.000000
v -8.000000 13.486616 -13.486616
v 13.486616 -13.486616 8.000000
v 8.000000 0.000000 -16.000000
v -8.000000 0.000000 -16.000000
v 0.000000 -8.000000 -16.000000
v 0.000000 8.000000 -16.000000
v 16.000000 0.000000 8.000000
v 16.000000 0.000000 -8.000000
v 16.000000 -8.000000 0.000000
v 16.000000 8.000000 0.000000
v 0.000000 -16.000000 8.000000
v 0.000000 -16.000000 -8.000000
v -8.000000 -16.000000 0.000000
v 8.000000 -16.000000 0.000000
v -16.000000 0.000000 -8.000000
v -16.000000 0.000000 8.000000
v -16.000000 -8.000000 0.000000
v -16.000000 8.000000 0.000000
v -8.000000 0.000000 16.000000
v 8.000000 0.000000 16.000000
v 0.000000 -8.000000 16.000000
v 0.000000 8.000000 16.000000
v 0.000000 16.000000 8.000000
v 0.000000 16.000000 -8.000000
v 8.000000 16.000000 0.000000
v -8.000000 16.000000 0.000000
v -8.000000 16.000000 -8.000000
v 8.000000 16.000000 -8.000000
v 8.000000 16.000000 8.000000
v 8.000000 8.000000 16.000000
v 8.000000 -8.000000 16.000000
v -8.000000 -8.000000 16.000000
v -16.000000 8.000000 8.000000
v -16.000000 -8.000000 8.000000
v -16.000000 -8.000000 -8.000000
v 8.000000 -16.000000 -8.000000
v -8.000000 -16.000000 -8.000000
v -8.000000 -16.000000 8.000000
v 16.000000 8.000000 -8.000000
v 16.000000 -8.000000 -8.000000
v 16.000000 -8.000000 8.000000
v -8.000000 8.000000 -16.000000
v -8.000000 -8.000000 -16.000000
v 8.000000 -8.000000 -16.000000
v 8.000000 8.000000 -16.000000
v 16.000000 8.000000 8.000000
v 8.000000 -16.000000 8.000000
v -16.000000 8.000000 -8.000000
v -8.000000 8.000000 16.000000
v -8.000000 16.000000 8.000000
vn 0.5774 0.5774 -0.5774
vn 0.5774 -0.5774 -0.5774
vn 0.5774 0.5774 0.5774
vn 0.5774 -0.5774 0.5774
vn -0.5774 0.5774 -0.5774
vn -0.5774 -0.5774 -0.5774
vn -0.5774 0.5774 0.5774
vn -0.5774 -0.5774 0.5774
vn -0.7071 -0.7071 -0.0000
vn -0.0000 -0.7071 -0.7071
vn 0.7071 -0.0000 -0.7071
vn -0.7071 -0.0000 0.7071
vn 0.7071 -0.0000 0.7071
vn -0.7071 -0.0000 -0.7071
vn -0.0000 0.7071 0.7071
vn 0.7071 0.7071 -0.0000
vn -0.0000 -0.7071 0.7071
vn -0.7071 0.7071 -0.0000
vn -0.0000 0.7071 -0.7071
vn 0.7071 -0.7071 -0.0000
vn -0.0000 -0.0000 -1.0000
vn 1.0000 -0.0000 -0.0000
vn -0.0000 -1.0000 -0.0000
vn -1.0000 -0.0000 -0.0000
vn -0.0000 -0.0000 1.0000
vn -0.0000 1.0000 -0.0000
vn -0.6967 -0.6967 0.1711
vn -0.1711 -0.6967 -0.6967
vn 0.6967 -0.1711 -0.6967
vn -0.6967 0.1711 0.6967
vn 0.6967 -0.1711 0.6967
vn -0.6967 -0.1711 -0.6967
vn -0.1711 0.6967 0.6967
vn 0.6967 0.6967 0.1711
vn 0.1711 -0.6967 0.6967
vn -0.6967 0.6967 -0.1711
vn 0.1711 0.6967 -0.6967
vn 0.6967 -0.6967 -0.1711
vn -0.6967 -0.6967 -0.1711
vn 0.1711 -0.6967 -0.6967
vn 0.6967 0.1711 -0.6967
vn -0.6967 -0.1711 0.6967
vn 0.6967 0.1711 0.6967
vn -0.6967 0.1711 -0.6967
vn 0.1711 0.6967 0.6967
vn 0.6967 0.6967 -0.1711
vn -0.1711 -0.6967 0.6967
vn -0.6967 0.6967 0.1711
vn -0.1711 0.6967 -0.6967
vn 0.6967 -0.6967 0.1711
vn 0.2131 -0.0000 -0.9770
vn -0.2131 -0.0000 -0.9770
vn -0.0000 -0.2131 -0.9770
vn -0.0000 0.2131 -0.9770
vn 0.9770 -0.0000 0.2131
vn 0.9770 -0.0000 -0.2131
vn 0.9770 -0.2131 -0.0000
vn 0.9770 0.2131 -0.0000
vn -0.0000 -0.9770 0.2131
vn -0.0000 -0.9770 -0.2131
vn -0.2131 -0.9770 -0.0000
vn 0.2131 -0.9770 -0.0000
vn -0.9770 -0.0000 -0.2131
vn -0.9770 -0.0000 0.2131
vn -0.9770 -0.2131 -0.0000
vn -0.9770 0.2131 -0.0000
vn -0.2131 -0.0000 0.9770
vn 0.2131 -0.0000 0.9770
vn -0.0000 -0.2131 0.9770
vn -0.0000 0.2131 0.9770
vn -0.0000 0.9770 0.2131
vn -0.0000 0.9770 -0.2131
vn 0.2131 0.9770 -0.0000
vn -0.2131 0.9770 -0.0000
vn -0.1875 0.9642 -0.1875
vn 0.1875 0.9642 -0.1875
vn 0.1875 0.9642 0.1875
vn 0.1875 0.1875 0.9642
vn 0.1875 -0.1875 0.9642
vn -0.1875 -0.1875 0.9642
vn -0.9642 0.1875 0.1875
vn -0.9642 -0.1875 0.1875
vn -0.9642 -0.1875 -0.1875
vn 0.1875 -0.9642 -0.1875
vn -0.1875 -0.9642 -0.1875
vn -0.1875 -0.9642 0.1875
vn 0.9642 0.1875 -0.1875
vn 0.9642 -0.1875 -0.1875
vn 0.9642 -0.1875 0.1875
vn -0.1875 0.1875 -0.9642
vn -0.1875 -0.1875 -0.9642
vn 0.1875 -0.1875 -0.9642
vn 0.1875 0.1875 -0.9642
vn 0.9642 0.1875 0.1875
vn 0.1875 -0.9642 0.1875
vn -0.9642 0.1875 -0.1875
vn -0.1875 0.1875 0.9642
vn -0.1875 0.9642 0.1875
vt 0.750000 0.750000
vt 1.000000 0.750000
vt 1.000000 1.000000
vt 0.750000 1.000000
vt 0.250000 0.750000
vt 0.500000 0.750000
vt 0.500000 1.000000
vt 0.250000 1.000000
vt 0.250000 0.250000
vt 0.500000 0.250000
vt 0.500000 0.500000
vt 0.250000 0.500000
vt 0.750000 0.250000
vt 1.000000 0.250000
vt 1.000000 0.500000
vt 0.750000 0.500000
vt 0.500000 0.000000
vt 0.750000 0.000000
vt 1.000000 0.000000
vt 0.000000 0.250000
vt 0.000000 0.500000
vt 0.000000 0.000000
vt 0.250000 0.000000
vt 0.000000 0.750000
vt 0.000000 1.000000
s 1
usemtl Tile1.002
f 98/1/98 48/2/48 7/3/7 33/4/33
f 97/1/97 33/2/33 7/3/7 30/4/30
f 96/1/96 36/2/36 5/3/5 44/4/44
f 95/1/95 50/2/50 4/3/4 35/4/35
f 94/1/94 34/2/34 3/3/3 43/4/43
f 93/1/93 37/2/37 1/3/1 41/4/41
f 92/5/92 51/6/51 11/7/11 29/8/29
f 91/9/91 52/10/52 21/11/21 53/12/53
f 90/13/90 49/14/49 19/15/19 54/16/54
f 89/5/89 55/6/55 13/7/13 31/8/31
f 88/9/88 56/10/56 22/11/22 57/12/57
f 87/13/87 46/14/46 16/15/16 58/16/58
f 86/5/86 59/6/59 17/7/17 47/8/47
f 85/9/85 60/10/60 23/11/23 61/12/61
f 84/13/84 38/14/38 20/15/20 62/16/62
f 83/5/83 63/6/63 14/7/14 32/8/32
f 82/9/82 64/10/64 24/11/24 65/12/65
f 81/13/81 48/14/48 18/15/18 66/16/66
f 80/5/80 67/6/67 12/7/12 42/8/42
f 79/9/79 68/10/68 25/11/25 69/12/69
f 78/13/78 45/14/45 15/15/15 70/16/70
f 77/5/77 71/6/71 15/7/15 45/8/45
f 76/9/76 72/10/72 26/11/26 73/12/73
f 75/13/75 36/14/36 18/15/18 74/16/74
f 72/10/72 75/13/75 74/16/74 26/11/26
f 19/17/19 49/18/49 75/13/75 72/10/72
f 49/18/49 5/19/5 36/14/36 75/13/75
f 46/20/46 76/9/76 73/12/73 16/21/16
f 1/22/1 37/23/37 76/9/76 46/20/46
f 37/23/37 19/17/19 72/10/72 76/9/76
f 34/24/34 77/5/77 45/8/45 3/25/3
f 16/21/16 73/12/73 77/5/77 34/24/34
f 73/12/73 26/11/26 71/6/71 77/5/77
f 68/10/68 78/13/78 70/16/70 25/11/25
f 13/17/13 43/18/43 78/13/78 68/10/68
f 43/18/43 3/19/3 45/14/45 78/13/78
f 35/20/35 79/9/79 69/12/69 17/21/17
f 4/22/4 31/23/31 79/9/79 35/20/35
f 31/23/31 13/17/13 68/10/68 79/9/79
f 47/24/47 80/5/80 42/8/42 8/25/8
f 17/21/17 69/12/69 80/5/80 47/24/47
f 69/12/69 25/11/25 67/6/67 80/5/80
f 64/10/64 81/13/81 66/16/66 24/11/24
f 12/17/12 30/18/30 81/13/81 64/10/64
f 30/18/30 7/19/7 48/14/48 81/13/81
f 27/20/27 82/9/82 65/12/65 9/21/9
f 8/22/8 42/23/42 82/9/82 27/20/27
f 42/23/42 12/17/12 64/10/64 82/9/82
f 39/24/39 83/5/83 32/8/32 6/25/6
f 9/21/9 65/12/65 83/5/83 39/24/39
f 65/12/65 24/11/24 63/6/63 83/5/83
f 60/10/60 84/13/84 62/16/62 23/11/23
f 10/17/10 40/18/40 84/13/84 60/10/60
f 40/18/40 2/19/2 38/14/38 84/13/84
f 39/20/39 85/9/85 61/12/61 9/21/9
f 6/22/6 28/23/28 85/9/85 39/20/39
f 28/23/28 10/17/10 60/10/60 85/9/85
f 27/24/27 86/5/86 47/8/47 8/25/8
f 9/21/9 61/12/61 86/5/86 27/24/27
f 61/12/61 23/11/23 59/6/59 86/5/86
f 56/10/56 87/13/87 58/16/58 22/11/22
f 11/17/11 41/18/41 87/13/87 56/10/56
f 41/18/41 1/19/1 46/14/46 87/13/87
f 38/20/38 88/9/88 57/12/57 20/21/20
f 2/22/2 29/23/29 88/9/88 38/20/38
f 29/23/29 11/17/11 56/10/56 88/9/88
f 50/24/50 89/5/89 31/8/31 4/25/4
f 20/21/20 57/12/57 89/5/89 50/24/50
f 57/12/57 22/11/22 55/6/55 89/5/89
f 52/10/52 90/13/90 54/16/54 21/11/21
f 14/17/14 44/18/44 90/13/90 52/10/52
f 44/18/44 5/19/5 49/14/49 90/13/90
f 28/20/28 91/9/91 53/12/53 10/21/10
f 6/22/6 32/23/32 91/9/91 28/20/28
f 32/23/32 14/17/14 52/10/52 91/9/91
f 40/24/40 92/5/92 29/8/29 2/25/2
f 10/21/10 53/12/53 92/5/92 40/24/40
f 53/12/53 21/11/21 51/6/51 92/5/92
f 51/6/51 93/1/93 41/4/41 11/7/11
f 21/11/21 54/16/54 93/1/93 51/6/51
f 54/16/54 19/15/19 37/2/37 93/1/93
f 55/6/55 94/1/94 43/4/43 13/7/13
f 22/11/22 58/16/58 94/1/94 55/6/55
f 58/16/58 16/15/16 34/2/34 94/1/94
f 59/6/59 95/1/95 35/4/35 17/7/17
f 23/11/23 62/16/62 95/1/95 59/6/59
f 62/16/62 20/15/20 50/2/50 95/1/95
f 63/6/63 96/1/96 44/4/44 14/7/14
f 24/11/24 66/16/66 96/1/96 63/6/63
f 66/16/66 18/15/18 36/2/36 96/1/96
f 67/6/67 97/1/97 30/4/30 12/7/12
f 25/11/25 70/16/70 97/1/97 67/6/67
f 70/16/70 15/15/15 33/2/33 97/1/97
f 71/6/71 98/1/98 33/4/33 15/7/15
f 26/11/26 74/16/74 98/1/98 71/6/71
f 74/16/74 18/15/18 48/2/48 98/1/98
