# Blender 4.1.1
# www.blender.org
mtllib corner.mtl
o Cube.004
v -32.000000 0.000000 32.000000
v -32.000000 64.000000 32.000000
v -32.000000 0.000000 -32.000000
v -32.000000 64.000000 -32.000000
v 32.000000 0.000000 32.000000
v 32.000000 64.000000 32.000000
v 32.000000 0.000000 -32.000000
v 32.000000 64.000000 -32.000000
vn -0.0000 1.0000 -0.0000
vn -1.0000 -0.0000 -0.0000
vn -0.0000 -1.0000 -0.0000
vn -0.0000 -0.0000 -1.0000
vt 0.000000 0.000000
vt 1.000000 0.000000
vt 1.000000 1.000000
vt 0.000000 1.000000
vt 0.000000 0.506272
vt 1.000000 0.506272
s 0
usemtl Stone
f 1/1/1 5/2/1 7/3/1 3/4/1
f 6/1/3 2/2/3 4/3/3 8/4/3
usemtl Bricks
f 8/5/2 7/1/2 5/2/2 6/6/2
f 6/5/4 5/1/4 1/2/4 2/6/4
