# Blender 4.1.1
# www.blender.org
mtllib flat.mtl
o Cube.040
v -32.000000 0.000000 32.000000
v -32.000000 64.000000 32.000000
v -32.000000 0.000000 -32.000000
v -32.000000 64.000000 -32.000000
v 32.000000 0.000000 32.000000
v 32.000000 64.000000 32.000000
v 32.000000 0.000000 -32.000000
v 32.000000 64.000000 -32.000000
vn -0.0000 1.0000 -0.0000
vn -0.0000 -1.0000 -0.0000
vt 0.000000 0.000000
vt 1.000000 0.000000
vt 1.000000 1.000000
vt 0.000000 1.000000
s 0
usemtl Stone
f 1/1/1 5/2/1 7/3/1 3/4/1
f 6/1/2 2/2/2 4/3/2 8/4/2
