# Blender 4.1.1
# www.blender.org
mtllib hall.mtl
o Cube.002
v -32.000000 0.000000 32.000000
v -32.000000 64.000000 32.000000
v -32.000000 0.000000 -32.000000
v -32.000000 64.000000 -32.000000
v 32.000000 0.000000 32.000000
v 32.000000 64.000000 32.000000
v 32.000000 0.000000 -32.000000
v 32.000000 64.000000 -32.000000
vn -0.0000 1.0000 -0.0000
vn -0.0000 -0.0000 1.0000
vn -0.0000 -1.0000 -0.0000
vn -0.0000 -0.0000 -1.0000
vt 0.000000 0.000000
vt 1.000000 0.000000
vt 1.000000 1.000000
vt 0.000000 1.000000
vt 0.000000 0.506272
vt 1.000000 0.506272
s 0
usemtl Stone
f 1/1/1 5/2/1 7/3/1 3/4/1
f 6/1/3 2/2/3 4/3/3 8/4/3
usemtl Bricks
f 4/5/2 3/1/2 7/2/2 8/6/2
f 6/5/4 5/1/4 1/2/4 2/6/4
o Cube.005
v 32.000000 0.000000 32.000000
v 32.000000 64.000000 32.000000
v 32.000000 0.000000 -32.000000
v 32.000000 64.000000 -32.000000
v 96.000000 0.000000 32.000000
v 96.000000 64.000000 32.000000
v 96.000000 0.000000 -32.000000
v 96.000000 64.000000 -32.000000
vn -0.0000 1.0000 -0.0000
vn -0.0000 -0.0000 1.0000
vn -0.0000 -1.0000 -0.0000
vn -0.0000 -0.0000 -1.0000
vt 0.000000 0.000000
vt 1.000000 0.000000
vt 1.000000 1.000000
vt 0.000000 1.000000
vt 0.000000 0.506272
vt 1.000000 0.506272
s 0
usemtl Stone
f 9/7/5 13/8/5 15/9/5 11/10/5
f 14/7/7 10/8/7 12/9/7 16/10/7
usemtl Bricks
f 12/11/6 11/7/6 15/8/6 16/12/6
f 14/11/8 13/7/8 9/8/8 10/12/8
o Cube.006
v -96.000000 0.000000 32.000000
v -96.000000 64.000000 32.000000
v -96.000000 0.000000 -32.000000
v -96.000000 64.000000 -32.000000
v -32.000000 0.000000 32.000000
v -32.000000 64.000000 32.000000
v -32.000000 0.000000 -32.000000
v -32.000000 64.000000 -32.000000
vn -0.0000 1.0000 -0.0000
vn -0.0000 -0.0000 1.0000
vn -0.0000 -1.0000 -0.0000
vn -0.0000 -0.0000 -1.0000
vt 0.000000 0.000000
vt 1.000000 0.000000
vt 1.000000 1.000000
vt 0.000000 1.000000
vt 0.000000 0.506272
vt 1.000000 0.506272
s 0
usemtl Stone
f 17/13/9 21/14/9 23/15/9 19/16/9
f 22/13/11 18/14/11 20/15/11 24/16/11
usemtl Bricks
f 20/17/10 19/13/10 23/14/10 24/18/10
f 22/17/12 21/13/12 17/14/12 18/18/12
