# Blender 4.1.1
# www.blender.org
mtllib roomDoor.mtl
o Cube.012
v -32.000000 0.000000 -32.000000
v -32.000000 128.000000 -32.000000
v -32.000000 0.000000 -96.000000
v -32.000000 128.000000 -96.000000
v 32.000000 0.000000 -32.000000
v 32.000000 128.000000 -32.000000
v 32.000000 0.000000 -96.000000
v 32.000000 128.000000 -96.000000
vn -0.0000 1.0000 -0.0000
vn -0.0000 -0.0000 1.0000
vn -1.0000 -0.0000 -0.0000
vn -0.0000 -1.0000 -0.0000
vt 0.000000 0.000000
vt 1.000000 0.000000
vt 1.000000 1.000000
vt 0.000000 1.000000
s 0
usemtl Stone.007
f 1/1/1 5/2/1 7/3/1 3/4/1
f 6/1/4 2/2/4 4/3/4 8/4/4
usemtl Bricks.007
f 4/4/2 3/1/2 7/2/2 8/3/2
f 8/4/3 7/1/3 5/2/3 6/3/3
o Cube.013
v -32.000015 0.000000 32.000015
v -32.000015 128.000000 32.000015
v 31.999985 0.000000 31.999985
v 31.999985 128.000000 31.999985
v -31.999985 0.000000 96.000015
v -31.999985 128.000000 96.000015
v 32.000015 0.000000 95.999985
v 32.000015 128.000000 95.999985
vn -0.0000 1.0000 -0.0000
vn -1.0000 -0.0000 -0.0000
vn -0.0000 -0.0000 -1.0000
vn -0.0000 -1.0000 -0.0000
vt 0.000000 0.000000
vt 1.000000 0.000000
vt 1.000000 1.000000
vt 0.000000 1.000000
s 0
usemtl Stone.007
f 9/5/5 13/6/5 15/7/5 11/8/5
f 14/5/8 10/6/8 12/7/8 16/8/8
usemtl Bricks.007
f 12/8/6 11/5/6 15/6/6 16/7/6
f 16/8/7 15/5/7 13/6/7 14/7/7
o Cube.019
v -96.000000 0.000000 32.000000
v -96.000000 128.000000 32.000000
v -96.000000 0.000000 -32.000000
v -96.000000 128.000000 -32.000000
v -32.000000 0.000000 32.000000
v -32.000000 128.000000 32.000000
v -32.000000 0.000000 -32.000000
v -32.000000 128.000000 -32.000000
vn -0.0000 1.0000 -0.0000
vn -0.0000 -1.0000 -0.0000
vt 0.000000 0.000000
vt 1.000000 0.000000
vt 1.000000 1.000000
vt 0.000000 1.000000
s 0
usemtl Stone.009
f 17/9/9 21/10/9 23/11/9 19/12/9
f 22/9/10 18/10/10 20/11/10 24/12/10
o Cube.020
v -96.000000 0.000000 -32.000000
v -96.000000 128.000000 -32.000000
v -160.000000 0.000000 -32.000000
v -160.000000 128.000000 -32.000000
v -96.000000 0.000000 -96.000000
v -96.000000 128.000000 -96.000000
v -160.000000 0.000000 -96.000000
v -160.000000 128.000000 -96.000000
vn -0.0000 1.0000 -0.0000
vn 1.0000 -0.0000 -0.0000
vn -0.0000 -0.0000 1.0000
vn -0.0000 -1.0000 -0.0000
vt 0.000000 0.000000
vt 1.000000 0.000000
vt 1.000000 1.000000
vt 0.000000 1.000000
s 0
usemtl Stone.007
f 25/13/11 29/14/11 31/15/11 27/16/11
f 30/13/14 26/14/14 28/15/14 32/16/14
usemtl Bricks.007
f 28/16/12 27/13/12 31/14/12 32/15/12
f 32/16/13 31/13/13 29/14/13 30/15/13
o Cube.021
v -96.000008 0.000000 31.999989
v -96.000008 128.000000 31.999989
v -95.999985 0.000000 95.999992
v -95.999985 128.000000 95.999992
v -160.000015 0.000000 32.000008
v -160.000015 128.000000 32.000008
v -159.999985 0.000000 96.000015
v -159.999985 128.000000 96.000015
vn -0.0000 1.0000 -0.0000
vn -0.0000 -0.0000 -1.0000
vn 1.0000 -0.0000 -0.0000
vn -0.0000 -1.0000 -0.0000
vt 0.000000 0.000000
vt 1.000000 0.000000
vt 1.000000 1.000000
vt 0.000000 1.000000
s 0
usemtl Stone.007
f 33/17/15 37/18/15 39/19/15 35/20/15
f 38/17/18 34/18/18 36/19/18 40/20/18
usemtl Bricks.007
f 36/20/16 35/17/16 39/18/16 40/19/16
f 40/20/17 39/17/17 37/18/17 38/19/17
o Cube.022
v -32.000000 0.000000 -32.000000
v -32.000000 128.000000 -32.000000
v -96.000000 0.000000 -32.000000
v -96.000000 128.000000 -32.000000
v -32.000000 0.000000 -96.000000
v -32.000000 128.000000 -96.000000
v -96.000000 0.000000 -96.000000
v -96.000000 128.000000 -96.000000
vn -0.0000 1.0000 -0.0000
vn -0.0000 -0.0000 1.0000
vn -0.0000 -1.0000 -0.0000
vt 0.000000 0.000000
vt 1.000000 0.000000
vt 1.000000 1.000000
vt 0.000000 1.000000
s 0
usemtl Stone.010
f 41/21/19 45/22/19 47/23/19 43/24/19
f 46/21/21 42/22/21 44/23/21 48/24/21
usemtl Bricks.010
f 48/24/20 47/21/20 45/22/20 46/23/20
o Cube.023
v -96.000000 0.000000 32.000000
v -96.000000 128.000000 32.000000
v -32.000000 0.000000 32.000000
v -32.000000 128.000000 32.000000
v -96.000000 0.000000 96.000000
v -96.000000 128.000000 96.000000
v -32.000000 0.000000 96.000000
v -32.000000 128.000000 96.000000
vn -0.0000 1.0000 -0.0000
vn -0.0000 -0.0000 -1.0000
vn -0.0000 -1.0000 -0.0000
vt 0.000000 0.000000
vt 1.000000 0.000000
vt 1.000000 1.000000
vt 0.000000 1.000000
s 0
usemtl Stone.010
f 49/25/22 53/26/22 55/27/22 51/28/22
f 54/25/24 50/26/24 52/27/24 56/28/24
usemtl Bricks.010
f 56/28/23 55/25/23 53/26/23 54/27/23
o Cube.024
v -96.000000 0.000000 -31.999994
v -96.000000 128.000000 -31.999994
v -96.000008 0.000000 32.000004
v -96.000008 128.000000 32.000004
v -160.000000 0.000000 -32.000004
v -160.000000 128.000000 -32.000004
v -160.000000 0.000000 31.999994
v -160.000000 128.000000 31.999994
vn -0.0000 1.0000 -0.0000
vn 1.0000 -0.0000 -0.0000
vn -0.0000 -1.0000 -0.0000
vt 0.000000 0.000000
vt 1.000000 0.000000
vt 1.000000 1.000000
vt 0.000000 1.000000
s 0
usemtl Stone.010
f 57/29/25 61/30/25 63/31/25 59/32/25
f 62/29/27 58/30/27 60/31/27 64/32/27
usemtl Bricks.010
f 64/32/26 63/29/26 61/30/26 62/31/26
o Cube.011
v -32.000000 0.000000 32.000000
v -32.000000 128.000000 32.000000
v -32.000000 0.000000 -32.000000
v -32.000000 128.000000 -32.000000
v 32.000000 0.000000 32.000000
v 32.000000 128.000000 32.000000
v 32.000000 0.000000 -32.000000
v 32.000000 128.000000 -32.000000
v 32.000000 64.000000 -32.000000
v 32.000000 64.000000 32.000000
vn -0.0000 1.0000 -0.0000
vn -0.0000 -1.0000 -0.0000
vn -1.0000 -0.0000 -0.0000
vt 0.000000 0.000000
vt 1.000000 0.000000
vt 1.000000 1.000000
vt 0.000000 1.000000
vt 0.000000 0.500000
vt 1.000000 0.500000
s 0
usemtl Stone.003
f 65/33/28 69/34/28 71/35/28 67/36/28
f 70/33/29 66/34/29 68/35/29 72/36/29
usemtl Bricks.003
f 72/36/30 73/37/30 74/38/30 70/35/30
o Cube.016
v 32.000000 0.000000 32.000000
v 32.000000 64.000000 32.000000
v 32.000000 0.000000 -32.000000
v 32.000000 64.000000 -32.000000
v 96.000000 0.000000 32.000000
v 96.000000 64.000000 32.000000
v 96.000000 0.000000 -32.000000
v 96.000000 64.000000 -32.000000
vn -0.0000 1.0000 -0.0000
vn -0.0000 -0.0000 1.0000
vn -0.0000 -1.0000 -0.0000
vn -0.0000 -0.0000 -1.0000
vt 0.000000 0.000000
vt 1.000000 0.000000
vt 1.000000 1.000000
vt 0.000000 1.000000
vt 0.000000 0.087909
vt 1.000000 0.087909
vt 0.865694 0.000000
vt 0.865694 1.000000
vt 1.000000 0.890114
vt 0.000000 0.890114
s 0
usemtl Stone.004
f 75/39/31 79/40/31 81/41/31 77/42/31
f 78/43/32 77/44/32 81/41/32 82/42/32
f 80/39/33 76/45/33 78/46/33 82/42/33
f 80/39/34 79/40/34 75/47/34 76/48/34
o Cube.017
v 160.000000 0.000000 32.000000
v 160.000000 64.000000 32.000000
v 160.000000 0.000000 -32.000000
v 160.000000 64.000000 -32.000000
v 224.000000 0.000000 32.000000
v 224.000000 64.000000 32.000000
v 224.000000 0.000000 -32.000000
v 224.000000 64.000000 -32.000000
vn -0.0000 1.0000 -0.0000
vn -0.0000 -0.0000 1.0000
vn -0.0000 -1.0000 -0.0000
vn -0.0000 -0.0000 -1.0000
vt 0.000000 0.000000
vt 1.000000 0.000000
vt 1.000000 1.000000
vt 0.000000 1.000000
vt 0.000000 0.506272
vt 1.000000 0.506272
s 0
usemtl Stone.004
f 83/49/35 87/50/35 89/51/35 85/52/35
f 88/49/37 84/50/37 86/51/37 90/52/37
usemtl Bricks.004
f 86/53/36 85/49/36 89/50/36 90/54/36
f 88/53/38 87/49/38 83/50/38 84/54/38
o Cube.018
v 96.000000 0.000000 32.000000
v 96.000000 64.000000 32.000000
v 96.000000 0.000000 -32.000000
v 96.000000 64.000000 -32.000000
v 160.000000 0.000000 32.000000
v 160.000000 64.000000 32.000000
v 160.000000 0.000000 -32.000000
v 160.000000 64.000000 -32.000000
vn -0.0000 1.0000 -0.0000
vn -0.0000 -0.0000 1.0000
vn -0.0000 -1.0000 -0.0000
vn -0.0000 -0.0000 -1.0000
vt 0.000000 0.000000
vt 1.000000 0.000000
vt 1.000000 1.000000
vt 0.000000 1.000000
vt 0.000000 0.506272
vt 1.000000 0.506272
s 0
usemtl Stone.004
f 91/55/39 95/56/39 97/57/39 93/58/39
f 96/55/41 92/56/41 94/57/41 98/58/41
usemtl Bricks.004
f 94/59/40 93/55/40 97/56/40 98/60/40
f 96/59/42 95/55/42 91/56/42 92/60/42
